<?xml version="1.0" standalone="no"?>
<svg viewBox="0 0 200 200" xmlns="http://www.w3.org/2000/svg" opacity="0.7">
  <path fill="rgb(0, 250, 255)" d="M45.3,-55.5C60.7,-51.1,76.7,-40.6,84.6,-25.3C92.5,-10.1,92.3,9.9,83,23.3C73.6,36.8,55.1,43.6,39.8,51.3C24.4,59,12.2,67.6,-2.5,71C-17.2,74.4,-34.4,72.7,-46.9,64.1C-59.4,55.5,-67.1,39.9,-70.3,24.3C-73.4,8.6,-71.8,-7.1,-68.5,-23.8C-65.1,-40.4,-60.1,-58.1,-48.4,-63.8C-36.7,-69.5,-18.3,-63.3,-1.7,-60.9C14.9,-58.5,29.8,-60,45.3,-55.5Z" transform="translate(100 100)" />
</svg>
