<?xml version="1.0" standalone="no"?>
<svg xmlns:xlink="http://www.w3.org/1999/xlink" id="wave" style="transform:rotate(180deg); transition: 0.3s" viewBox="0 0 1440 340" version="1.1" xmlns="http://www.w3.org/2000/svg"><defs><linearGradient id="sw-gradient-0" x1="0" x2="0" y1="1" y2="0"><stop stop-color="rgba(130.097, 68.107, 7.758, 1)" offset="0%"/><stop stop-color="rgba(191.57, 131.901, 0, 1)" offset="100%"/></linearGradient></defs><path style="transform:translate(0, 0px); opacity:1" fill="url(#sw-gradient-0)" d="M0,102L10,107.7C20,113,40,125,60,119C80,113,100,91,120,79.3C140,68,160,68,180,107.7C200,147,220,227,240,266.3C260,306,280,306,300,300.3C320,295,340,283,360,232.3C380,181,400,91,420,96.3C440,102,460,204,480,255C500,306,520,306,540,255C560,204,580,102,600,90.7C620,79,640,159,660,158.7C680,159,700,79,720,73.7C740,68,760,136,780,147.3C800,159,820,113,840,130.3C860,147,880,227,900,215.3C920,204,940,102,960,96.3C980,91,1000,181,1020,215.3C1040,249,1060,227,1080,221C1100,215,1120,227,1140,198.3C1160,170,1180,102,1200,113.3C1220,125,1240,215,1260,255C1280,295,1300,283,1320,272C1340,261,1360,249,1380,215.3C1400,181,1420,125,1430,96.3L1440,68L1440,340L1430,340C1420,340,1400,340,1380,340C1360,340,1340,340,1320,340C1300,340,1280,340,1260,340C1240,340,1220,340,1200,340C1180,340,1160,340,1140,340C1120,340,1100,340,1080,340C1060,340,1040,340,1020,340C1000,340,980,340,960,340C940,340,920,340,900,340C880,340,860,340,840,340C820,340,800,340,780,340C760,340,740,340,720,340C700,340,680,340,660,340C640,340,620,340,600,340C580,340,560,340,540,340C520,340,500,340,480,340C460,340,440,340,420,340C400,340,380,340,360,340C340,340,320,340,300,340C280,340,260,340,240,340C220,340,200,340,180,340C160,340,140,340,120,340C100,340,80,340,60,340C40,340,20,340,10,340L0,340Z"/></svg>