<?xml version="1.0" encoding="UTF-8"?>
<svg id="wave" xmlns="http://www.w3.org/2000/svg" viewBox="0 0 1440 272">
  <defs>
    <style>
      .cls-1 {
        fill: #ecffff;
        stroke-width: 0px;
      }
    </style>
  </defs>
  <path class="cls-1" d="m0,34l10,5.7c10,5.3,30,17.3,50,11.3s40-28,60-39.7c20-11.3,40-11.3,60,28.4,20,39.3,40,119.3,60,158.6,20,39.7,40,39.7,60,34,20-5.3,40-17.3,60-68,20-51.3,40-141.3,60-136,20,5.7,40,107.7,60,158.7s40,51,60,0,40-153,60-164.3c20-11.7,40,68.3,60,68,20,.3,40-79.7,60-85,20-5.7,40,62.3,60,73.6,20,11.7,40-34.3,60-17,20,16.7,40,96.7,60,85,20-11.3,40-113.3,60-119,20-5.3,40,84.7,60,119,20,33.7,40,11.7,60,5.7s40,6,60-22.7c20-28.3,40-96.3,60-85,20,11.7,40,101.7,60,141.7s40,28,60,17,40-23,60-56.7c20-34.3,40-90.3,50-119l10-28.3v272H0V34Z"/>
</svg>