<?xml version="1.0" standalone="no"?>
<svg xmlns:xlink="http://www.w3.org/1999/xlink" id="wave" style="transform:rotate(180deg); transition: 0.3s" viewBox="0 0 1440 490" version="1.1" xmlns="http://www.w3.org/2000/svg"><defs><linearGradient id="sw-gradient-0" x1="0" x2="0" y1="1" y2="0"><stop stop-color="rgba(140.791, 205.231, 129.265, 1)" offset="0%"/><stop stop-color="rgba(11, 73, 0, 1)" offset="100%"/></linearGradient></defs><path style="transform:translate(0, 0px); opacity:1" fill="url(#sw-gradient-0)" d="M0,49L12,106.2C24,163,48,278,72,318.5C96,359,120,327,144,269.5C168,212,192,131,216,106.2C240,82,264,114,288,179.7C312,245,336,343,360,326.7C384,310,408,180,432,155.2C456,131,480,212,504,228.7C528,245,552,196,576,220.5C600,245,624,343,648,318.5C672,294,696,147,720,114.3C744,82,768,163,792,179.7C816,196,840,147,864,147C888,147,912,196,936,187.8C960,180,984,114,1008,73.5C1032,33,1056,16,1080,8.2C1104,0,1128,0,1152,16.3C1176,33,1200,65,1224,98C1248,131,1272,163,1296,155.2C1320,147,1344,98,1368,73.5C1392,49,1416,49,1440,106.2C1464,163,1488,278,1512,310.3C1536,343,1560,294,1584,277.7C1608,261,1632,278,1656,269.5C1680,261,1704,229,1716,212.3L1728,196L1728,490L1716,490C1704,490,1680,490,1656,490C1632,490,1608,490,1584,490C1560,490,1536,490,1512,490C1488,490,1464,490,1440,490C1416,490,1392,490,1368,490C1344,490,1320,490,1296,490C1272,490,1248,490,1224,490C1200,490,1176,490,1152,490C1128,490,1104,490,1080,490C1056,490,1032,490,1008,490C984,490,960,490,936,490C912,490,888,490,864,490C840,490,816,490,792,490C768,490,744,490,720,490C696,490,672,490,648,490C624,490,600,490,576,490C552,490,528,490,504,490C480,490,456,490,432,490C408,490,384,490,360,490C336,490,312,490,288,490C264,490,240,490,216,490C192,490,168,490,144,490C120,490,96,490,72,490C48,490,24,490,12,490L0,490Z"/><defs><linearGradient id="sw-gradient-1" x1="0" x2="0" y1="1" y2="0"><stop stop-color="rgba(141, 205, 129, 1)" offset="0%"/><stop stop-color="rgba(11, 73, 0, 1)" offset="100%"/></linearGradient></defs><path style="transform:translate(0, 50px); opacity:0.9" fill="url(#sw-gradient-1)" d="M0,0L12,65.3C24,131,48,261,72,302.2C96,343,120,294,144,285.8C168,278,192,310,216,334.8C240,359,264,376,288,367.5C312,359,336,327,360,302.2C384,278,408,261,432,228.7C456,196,480,147,504,179.7C528,212,552,327,576,375.7C600,425,624,408,648,367.5C672,327,696,261,720,220.5C744,180,768,163,792,138.8C816,114,840,82,864,106.2C888,131,912,212,936,261.3C960,310,984,327,1008,343C1032,359,1056,376,1080,392C1104,408,1128,425,1152,424.7C1176,425,1200,408,1224,343C1248,278,1272,163,1296,106.2C1320,49,1344,49,1368,81.7C1392,114,1416,180,1440,204.2C1464,229,1488,212,1512,179.7C1536,147,1560,98,1584,130.7C1608,163,1632,278,1656,310.3C1680,343,1704,294,1716,269.5L1728,245L1728,490L1716,490C1704,490,1680,490,1656,490C1632,490,1608,490,1584,490C1560,490,1536,490,1512,490C1488,490,1464,490,1440,490C1416,490,1392,490,1368,490C1344,490,1320,490,1296,490C1272,490,1248,490,1224,490C1200,490,1176,490,1152,490C1128,490,1104,490,1080,490C1056,490,1032,490,1008,490C984,490,960,490,936,490C912,490,888,490,864,490C840,490,816,490,792,490C768,490,744,490,720,490C696,490,672,490,648,490C624,490,600,490,576,490C552,490,528,490,504,490C480,490,456,490,432,490C408,490,384,490,360,490C336,490,312,490,288,490C264,490,240,490,216,490C192,490,168,490,144,490C120,490,96,490,72,490C48,490,24,490,12,490L0,490Z"/><defs><linearGradient id="sw-gradient-2" x1="0" x2="0" y1="1" y2="0"><stop stop-color="rgba(141, 205, 129, 1)" offset="0%"/><stop stop-color="rgba(11, 73, 0, 1)" offset="100%"/></linearGradient></defs><path style="transform:translate(0, 100px); opacity:0.8" fill="url(#sw-gradient-2)" d="M0,441L12,400.2C24,359,48,278,72,236.8C96,196,120,196,144,196C168,196,192,196,216,204.2C240,212,264,229,288,204.2C312,180,336,114,360,89.8C384,65,408,82,432,130.7C456,180,480,261,504,269.5C528,278,552,212,576,171.5C600,131,624,114,648,130.7C672,147,696,196,720,179.7C744,163,768,82,792,98C816,114,840,229,864,285.8C888,343,912,343,936,285.8C960,229,984,114,1008,114.3C1032,114,1056,229,1080,236.8C1104,245,1128,147,1152,155.2C1176,163,1200,278,1224,334.8C1248,392,1272,392,1296,375.7C1320,359,1344,327,1368,285.8C1392,245,1416,196,1440,147C1464,98,1488,49,1512,73.5C1536,98,1560,196,1584,204.2C1608,212,1632,131,1656,114.3C1680,98,1704,147,1716,171.5L1728,196L1728,490L1716,490C1704,490,1680,490,1656,490C1632,490,1608,490,1584,490C1560,490,1536,490,1512,490C1488,490,1464,490,1440,490C1416,490,1392,490,1368,490C1344,490,1320,490,1296,490C1272,490,1248,490,1224,490C1200,490,1176,490,1152,490C1128,490,1104,490,1080,490C1056,490,1032,490,1008,490C984,490,960,490,936,490C912,490,888,490,864,490C840,490,816,490,792,490C768,490,744,490,720,490C696,490,672,490,648,490C624,490,600,490,576,490C552,490,528,490,504,490C480,490,456,490,432,490C408,490,384,490,360,490C336,490,312,490,288,490C264,490,240,490,216,490C192,490,168,490,144,490C120,490,96,490,72,490C48,490,24,490,12,490L0,490Z"/></svg>